<svg width="750" height="750" viewBox="0 0 750 750" fill="none" xmlns="http://www.w3.org/2000/svg">
<path fill-rule="evenodd" clip-rule="evenodd" d="M326.322 691.931C292.644 710.099 253.161 711.579 215.8 706.405C143.472 696.389 70.43 658.634 34.4663 590.327C18.9535 560.863 11.1187 527.454 5.66016 494.099C-1.62974 449.552 -4.57456 401.663 13.7443 360.957C29.1875 326.642 57.8468 301.671 86.4 279.112C116.325 255.47 148.743 232.484 185.6 227.759C291.919 225.492 281.149 268.496 392.183 200.1C424.461 180.218 520.428 214.347 552.853 225.492C585.278 236.637 649.262 271.02 692.654 311.864C710.792 328.937 727.522 348.475 737.716 371.979C752.978 407.17 752.238 448.164 745.117 486.238C737.934 524.642 722.34 564.585 690.664 583.859C676.353 592.566 659.852 596.301 643.467 597.73C575.043 603.698 502.257 572.244 439.641 602.543C396.775 623.286 368.339 669.265 326.322 691.931Z" fill="#3D9090"/>
<path fill-rule="evenodd" clip-rule="evenodd" d="M65.2173 355.898C77.2292 343.072 88.5188 329.848 96.1167 318.323C106.575 302.458 121.909 287.373 140.08 284.463C161.269 281.069 180.73 296.905 196.133 313.04C217.412 335.33 236.509 360.067 253 386.702C246.385 387.636 232.13 398.332 213.187 397.992C202.036 397.792 188.714 387.02 175.836 386.301C166.891 385.801 157.126 395.95 148.119 395.176C132.371 393.823 117.641 381.254 104.356 378.98C96.4422 377.626 85.7615 386.154 79.6779 384.443C62.9592 379.742 58.0046 363.6 65.2173 355.898Z" fill="white"/>
<path fill-rule="evenodd" clip-rule="evenodd" d="M427.245 555.669C479.42 537.104 535.958 558.62 590.892 557.826C615.229 557.474 641.246 551.678 658 532.624C621.303 509.307 593.448 472.227 573.159 431.821C552.869 391.416 539.53 347.457 526.299 303.774C508.892 293.063 486.485 311.177 467.377 304.663C457.613 301.334 445.952 292.29 438.945 300.348C434.715 305.212 426.838 302.351 422.724 297.373C418.61 292.394 416.318 285.776 411.679 281.368C407.04 276.96 398.235 276.404 395.874 282.569C391.788 293.241 387.48 304.264 379.645 312.128C371.81 319.992 359.388 323.788 350.211 317.85C343.042 313.212 339.659 304.186 335.483 296.372C331.308 288.558 329.679 281.533 321.376 282.569C293.329 346.34 272.39 409.03 237.886 469C223.059 494.77 140.104 593.005 91.903 580.345C43.7015 567.684 47.2777 557.826 31 542.258C47.956 579.485 77.9096 608.776 112.111 627.708C146.312 646.64 184.618 655.743 222.935 659.031C238.055 660.329 253.39 660.738 268.273 657.581C329.265 644.645 368.212 576.675 427.245 555.669Z" fill="white"/>
<path fill-rule="evenodd" clip-rule="evenodd" d="M375.294 307.08C380.635 299.655 383.972 290.722 389.476 283.436C394.979 276.149 403.916 270.5 412.241 273.315C419.988 275.934 424.251 284.631 427.705 292.539C429.439 296.509 434.712 296.816 438.511 295.224C442.31 293.632 445.726 290.754 449.779 290.278C458.166 289.293 464.482 298.641 472.678 300.793C484.873 303.996 497.132 290.605 509.185 294.384C514.285 295.983 518.7 300.571 524 300.179C513.806 273.889 506.128 246.512 495.427 220.457C484.725 194.402 470.61 169.255 450.063 151.291C447.95 149.444 445.638 147.615 442.938 147.245C440.238 146.874 437.109 148.524 436.636 151.409C435.229 159.984 433.823 168.559 432.416 177.134C431.72 181.379 429.881 186.709 425.875 186.629C423.206 186.575 421.156 183.759 420.788 180.914C420.421 178.069 421.307 175.229 422.18 172.514C424.916 164.01 427.652 155.505 430.388 147C411.617 154.288 395.347 167.815 381.859 183.641C368.372 199.466 357.464 217.603 347.009 235.892C338.057 251.551 329.386 267.396 321 283.413C332.245 281.696 342.039 291.631 348.402 301.754C352.208 307.811 356.741 315.027 363.537 315C368.328 314.981 372.361 311.156 375.294 307.08Z" fill="white"/>
<path fill-rule="evenodd" clip-rule="evenodd" d="M447.956 122.57C446.71 122.138 445.402 121.647 444.553 120.572C443.332 119.024 443.413 116.763 443.56 114.737C445.013 94.7132 446.466 74.6897 447.919 54.6663C448.087 52.3461 450.196 50.6353 452.329 50.2927C454.463 49.9501 456.608 50.6472 458.668 51.3362C471.956 55.7806 485.244 60.225 498.532 64.6694C501.775 65.7541 501.947 70.6119 501.265 74.2009C500.582 77.7899 500.069 82.3982 502.972 84.2977C522.351 96.9757 542.943 107.493 564.315 115.627C565.696 116.153 565.798 118.42 564.833 119.609C563.868 120.799 562.328 121.182 560.895 121.512C539.197 126.509 517.965 133.858 497.622 143.414C494.776 144.751 491.059 145.973 488.911 143.555C487.382 141.835 487.529 139.145 487.4 136.766C487.271 134.386 486.298 131.537 484.106 131.236C471.844 129.555 459.725 126.649 447.956 122.57M493.48 81.956C496.452 76.8761 494.333 69.1976 489.27 66.7004C477.261 60.7782 464.658 56.2607 451.752 53.2526C453.897 56.8238 453.782 61.3918 453.593 65.6427C452.867 81.9655 452.119 98.4387 448.17 114.215C447.829 115.579 449.455 116.466 450.732 116.774C462.178 119.536 473.71 121.884 485.302 123.813C484.347 111.757 483.392 99.7013 482.437 87.6455C482.331 86.3055 482.233 84.9059 482.706 83.6617C483.472 81.6458 485.6 80.5502 487.618 80.4882C489.636 80.4263 491.587 81.1967 493.48 81.956M490.992 91.4581C491.903 105.604 492.815 119.749 493.727 133.895C493.807 135.135 493.941 136.504 494.791 137.343C513.268 129.066 532.41 122.517 551.931 117.794C530.778 111.239 512.933 93.3094 490.992 91.4581Z" fill="#FFB61D"/>
<path fill-rule="evenodd" clip-rule="evenodd" d="M306.318 653.003C274.684 670.106 237.598 671.499 202.506 666.628C134.568 657.199 65.9606 621.656 32.1801 557.353C17.6091 529.615 10.2499 498.164 5.12273 466.764C2.30988 449.537 -3.15291 423.736 6.84992 412.025C9.08492 409.409 71.8719 354.844 96.3975 317.807C106.912 301.928 122.33 286.83 140.598 283.918C161.902 280.521 181.468 296.37 196.954 312.52C218.348 334.83 237.548 359.589 254.128 386.247C235.857 377.871 222.708 360.462 210.571 343.51C198.434 326.557 185.894 308.819 168.126 299.265C150.358 289.712 125.683 291.303 114.144 308.734C86.639 350.28 51.8463 386.187 12.1582 413.986C9.17308 416.077 8.9032 420.597 8.9591 424.437C9.60427 468.761 14.1964 519.238 47.0548 545.842C74.4992 568.063 114.339 565.164 144.402 547.32C174.464 529.475 196.451 499.293 215.326 468.374C270.695 377.677 306.648 274.008 366.16 186.42C379.841 166.285 395.959 146.15 418.001 138.559C432.709 133.494 436.832 113.242 436.561 96.5849C436.291 79.9276 434.831 60.9891 445.548 48.9983C443.289 76.6986 441.03 104.399 438.771 132.099C471.691 149.737 490.919 187.289 505.031 223.911C525.986 278.294 540.21 335.535 562.271 389.406C584.332 443.277 615.647 495.039 661.937 526.241C683.364 496.138 695.583 447.948 695.583 420.408C683.364 406.037 666.007 383.555 645.7 373.432C621.493 361.365 594.936 382.521 575.49 402.21C586.237 384.556 599.14 365.973 618.158 360.973C633.51 356.937 649.941 362.957 662.678 373.048C675.415 383.138 685.126 396.949 694.648 410.557C704.276 413.986 706.378 423.521 699.689 459.364C692.942 495.518 678.295 533.12 648.542 551.263C635.1 559.461 619.6 562.977 604.211 564.322C539.94 569.94 471.573 540.33 412.758 568.853C372.494 588.38 345.784 631.664 306.318 653.003ZM427.477 555.139C479.673 536.567 536.232 558.09 591.187 557.296C615.534 556.944 641.56 551.145 658.321 532.085C621.609 508.76 593.744 471.667 573.447 431.247C553.15 390.827 539.805 346.853 526.57 303.155C509.155 292.44 486.74 310.561 467.625 304.044C457.857 300.713 446.192 291.667 439.182 299.728C434.951 304.594 427.07 301.731 422.955 296.751C418.839 291.771 416.546 285.151 411.906 280.741C407.265 276.331 398.456 275.776 396.095 281.943C392.007 292.618 387.698 303.645 379.859 311.512C372.021 319.379 359.594 323.176 350.414 317.236C343.242 312.596 339.858 303.567 335.681 295.75C331.504 287.934 324.585 280.119 316.279 281.155C288.221 344.948 256.835 407.037 222.318 467.028C207.486 492.807 191.787 518.562 170.544 538.441C149.3 558.321 121.559 571.919 93.5574 569.154C70.9611 566.923 50.4356 554.503 31.0811 541.723C48.0435 578.963 78.0086 608.263 112.223 627.202C146.437 646.141 184.758 655.248 223.09 658.537C238.215 659.835 253.556 660.244 268.445 657.086C329.46 644.145 368.422 576.151 427.477 555.139ZM374.069 301.64C379.415 294.186 382.756 285.218 388.265 277.902C393.774 270.586 402.72 264.915 411.054 267.741C418.809 270.37 423.076 279.102 426.534 287.041C428.27 291.027 433.548 291.336 437.351 289.738C441.154 288.139 444.573 285.249 448.631 284.771C457.026 283.783 463.349 293.167 471.553 295.328C483.761 298.544 496.033 285.1 508.097 288.893C513.203 290.499 517.622 295.105 522.928 294.712C512.723 268.317 505.094 242.327 494.381 216.169C483.668 190.01 460.398 143.749 441.783 141.169C422.956 138.559 394.142 161.821 380.641 177.709C367.139 193.598 356.221 211.807 345.755 230.169C336.794 245.891 328.113 261.798 319.719 277.88C330.976 276.155 340.78 286.13 347.149 296.293C350.96 302.374 355.497 309.619 362.3 309.592C367.096 309.573 371.133 305.733 374.069 301.64Z" fill="#00160A"/>
<path fill-rule="evenodd" clip-rule="evenodd" d="M291.288 89.8658C279.461 91.1608 269.815 102.365 264.943 117.528C263.676 121.47 259.518 123.29 252.223 124.048L251.763 124.094C235.611 125.649 224.888 130.138 219.718 140.401L219.502 140.84C219.081 141.713 218.721 142.584 218.194 143.961L217.854 144.858C216.634 148.094 216.01 149.463 214.966 150.887C211.714 155.323 206.821 156.689 197.029 157.006L195.941 157.037C172.482 157.601 155.908 161.447 142.483 171.565C138.643 174.46 136.356 177.333 135.844 181.015C135.257 185.235 137.529 189.605 141.157 192.005C144.06 193.924 147.541 194.683 151.889 194.696C157.179 194.713 162.469 193.719 167.442 191.774L167.857 191.61C168.605 191.311 169.316 191.005 170.372 190.533L172.607 189.526C177.194 187.479 179.42 186.753 182.21 186.595C186.516 186.351 189.913 187.577 197.149 191.392L198.671 192.198C200.246 193.03 201.382 193.61 202.496 194.137L202.8 194.279C214.938 199.937 227.348 200.883 247.503 199.225L251.48 198.878L260.288 198.074C262.6 197.871 264.255 197.742 266.162 197.611L268.002 197.494C275.853 197.033 284.234 197.025 297.919 197.32L307.331 197.532C326.196 197.934 334.7 197.825 343.766 196.818C354.3 195.648 361.16 187.711 363.972 175.953C366.251 166.424 365.423 155.304 362.247 150.021C355.905 139.472 346.44 133.117 337.731 136.045C334.844 137.016 331.212 134.728 329.359 130.975C328.353 128.936 327.842 127.098 327.002 122.977L326.596 120.983C326.362 119.856 326.19 119.102 325.973 118.255C323.019 106.717 314.95 96.8648 304.702 92.2824C300.206 90.2717 295.631 89.3902 291.288 89.8658ZM303.458 95.5241C312.622 99.622 319.902 108.39 322.699 118.657L322.84 119.19C323.042 119.977 323.204 120.69 323.43 121.776L323.931 124.238C324.776 128.326 325.346 130.308 326.49 132.625C328.958 137.623 333.911 140.811 338.428 139.481L338.698 139.396C345.685 137.047 353.879 142.547 359.52 151.931C362.14 156.289 362.895 166.421 360.825 175.077C358.323 185.534 352.453 192.326 343.434 193.328L342.423 193.437C334.119 194.299 325.858 194.402 308.822 194.054L296.383 193.779C283.554 193.517 275.461 193.542 267.821 193.991L264.825 194.189C262.686 194.344 260.646 194.517 257.314 194.82L248.13 195.653C228.237 197.345 216.141 196.535 204.599 191.292L204.09 191.058C203.126 190.609 202.162 190.126 200.898 189.466L198.043 187.959C190.667 184.099 186.967 182.812 182.041 183.091C178.673 183.282 176.154 184.129 170.929 186.48L168.619 187.518C167.705 187.923 167.066 188.19 166.335 188.476C161.72 190.281 156.808 191.203 151.899 191.188C148.094 191.176 145.16 190.537 142.856 189.013C140.27 187.303 138.683 184.249 139.06 181.536C139.405 179.053 141.171 176.834 144.345 174.442C156.953 164.941 172.713 161.195 195.103 160.569L196.014 160.545C207.501 160.269 213.314 158.797 217.517 153.064C218.707 151.44 219.408 149.985 220.545 147.026L221.425 144.719C221.87 143.577 222.185 142.852 222.575 142.077C226.935 133.422 236.33 129.291 250.748 127.723L252.052 127.59C260.691 126.758 265.946 124.596 267.91 118.993L268.015 118.678C272.516 104.67 281.282 94.4884 291.616 93.3568C295.222 92.9619 299.08 93.6579 302.933 95.2951L303.458 95.5241Z" fill="#00160A"/>
<path fill-rule="evenodd" clip-rule="evenodd" d="M643.683 162.479L643.282 162.912C642.976 163.249 642.673 163.598 642.3 164.045L640.811 165.851C639.393 167.566 638.626 168.383 637.623 169.2C635.438 170.98 632.82 171.53 631.079 170.478C630.379 170.056 629.858 169.501 628.852 168.167L628.103 167.171C627.712 166.66 627.435 166.325 627.094 165.954C622.607 161.075 614.77 160.838 608.805 164.723C604.136 167.763 600.781 172.42 597.107 179.828C595.606 182.854 592.306 184.947 588.38 185.587C586.473 185.898 584.467 185.921 581.902 185.716L580.647 185.603L576.704 185.171C555.953 182.963 534.731 186.127 515.313 194.325C512.249 195.618 510.545 196.778 509.463 198.937C507.904 202.049 509.484 206.566 512.815 206.765C569.737 210.169 626.893 209.006 683.656 203.289L687.257 202.924L689.885 202.73C690.13 202.71 690.332 202.692 690.583 202.668L691.257 202.595C696.436 201.976 699.28 200.122 699.28 195.476C699.28 190.988 697.275 189.76 692.213 189.203L691.2 189.089C689.239 188.858 688.345 188.684 687.135 188.28C682.843 186.845 677.73 183.852 676.614 182.358C674.964 180.147 674.261 178.067 673.257 173.23L672.941 171.7C671.886 166.717 671.047 164.341 669.06 161.675C663.261 153.894 650.885 154.846 643.683 162.479ZM666.526 163.874C668.173 166.084 668.876 168.165 669.878 172.994L670.195 174.525C671.251 179.515 672.09 181.892 674.081 184.559C675.691 186.716 681.318 190.008 686.172 191.632L686.618 191.776C687.779 192.137 688.753 192.321 690.455 192.53L692.698 192.79C695.559 193.155 696.028 193.595 696.028 195.476C696.028 197.764 694.492 198.725 690.622 199.14L689.633 199.232L687.158 199.413C687.039 199.423 686.927 199.433 686.819 199.443L686.498 199.474C628.862 205.452 570.807 206.719 512.994 203.262C512.334 203.222 511.79 201.668 512.323 200.606C512.922 199.409 514.113 198.599 516.497 197.592C535.111 189.734 555.43 186.617 575.337 188.556L577.772 188.816L579.784 189.039C580.255 189.088 580.644 189.126 581.074 189.165C584.14 189.44 586.53 189.437 588.865 189.056C593.726 188.264 597.934 185.596 599.973 181.484C603.394 174.585 606.437 170.363 610.484 167.727C615.259 164.618 621.456 164.804 624.785 168.426L624.98 168.643C625.14 168.827 625.301 169.025 625.5 169.281L626.124 170.107C627.519 171.978 628.261 172.798 629.491 173.54C632.519 175.369 636.463 174.541 639.581 172.001C640.726 171.068 641.566 170.19 642.956 168.526L644.689 166.424C645.192 165.822 645.549 165.419 645.961 164.982C651.91 158.677 662.07 157.895 666.526 163.874Z" fill="#00160A"/>
<path fill-rule="evenodd" clip-rule="evenodd" d="M437.267 96.8979C437.004 80.1316 435.585 61.0693 446 49C443.805 76.8815 441.61 104.763 439.415 132.645C442.979 134.623 437.663 137.932 434.441 137.998C422.9 138.237 437.53 113.664 437.267 96.8979Z" fill="#FFB61D"/>
</svg>
